<svg viewBox="0 0 400 400" xmlns="http://www.w3.org/2000/svg">
    <path fill="rgb(255, 255, 255)" fill-opacity="0.20" d="M17.1,-34.4C24,-22.1,32.9,-20.6,45.5,-14.5C58,-8.4,74.2,2.3,73.6,11.1C73.1,19.8,55.9,26.7,42,28.5C28.1,30.3,17.5,27,9.3,27.6C1.1,28.1,-4.9,32.4,-15.7,36.8C-26.5,41.3,-42.2,45.7,-50.6,41.1C-59,36.4,-60.1,22.6,-65,7.6C-69.8,-7.4,-78.4,-23.6,-74.1,-34.2C-69.8,-44.8,-52.5,-49.8,-38,-58.8C-23.5,-67.7,-11.8,-80.6,-3.4,-75.4C5,-70.1,10.1,-46.8,17.1,-34.4Z" transform="translate(200 200) scale(2)" />
</svg>