<svg width="95" height="103" viewBox="0 0 95 103" fill="none" xmlns="http://www.w3.org/2000/svg">
    <path d="M49.8 65H73.2" stroke="#0E0C36" stroke-width="4.5354" stroke-miterlimit="10" stroke-linecap="round"
          stroke-linejoin="round"/>
    <path d="M29.2 73.4H60.8" stroke="#3772FF" stroke-width="4.535" stroke-miterlimit="10" stroke-linecap="round"
          stroke-linejoin="round"/>
    <path d="M49.8 81.9H73.2" stroke="#0E0C36" stroke-width="4.5354" stroke-miterlimit="10" stroke-linecap="round"
          stroke-linejoin="round"/>
    <path d="M53.1 17.7H1.70001V42.4H53.1V17.7Z" fill="#3772FF" stroke="#3772FF" stroke-width="3.4016"
          stroke-miterlimit="10" stroke-linecap="round" stroke-linejoin="round"/>
    <path d="M12.2081 37H7.30967V23.1818H12.2486C13.6385 23.1818 14.835 23.4585 15.8381 24.0117C16.8412 24.5605 17.6126 25.3499 18.1524 26.38C18.6966 27.41 18.9688 28.6425 18.9688 30.0774C18.9688 31.5168 18.6966 32.7538 18.1524 33.7884C17.6126 34.8229 16.8367 35.6168 15.8246 36.1701C14.817 36.7234 13.6115 37 12.2081 37ZM10.2312 34.4968H12.0867C12.9503 34.4968 13.6767 34.3439 14.266 34.038C14.8597 33.7276 15.305 33.2486 15.6019 32.6009C15.9033 31.9486 16.054 31.1075 16.054 30.0774C16.054 29.0563 15.9033 28.2219 15.6019 27.5742C15.305 26.9265 14.862 26.4497 14.2727 26.1438C13.6835 25.8379 12.957 25.685 12.0934 25.685H10.2312V34.4968ZM33.7361 30.0909C33.7361 31.5978 33.4504 32.8797 32.8792 33.9368C32.3124 34.9938 31.5387 35.8013 30.5581 36.359C29.5821 36.9123 28.4845 37.1889 27.2655 37.1889C26.0376 37.1889 24.9355 36.91 23.9594 36.3523C22.9833 35.7945 22.2119 34.9871 21.6452 33.93C21.0784 32.873 20.795 31.5933 20.795 30.0909C20.795 28.584 21.0784 27.3021 21.6452 26.245C22.2119 25.188 22.9833 24.3828 23.9594 23.8295C24.9355 23.2718 26.0376 22.9929 27.2655 22.9929C28.4845 22.9929 29.5821 23.2718 30.5581 23.8295C31.5387 24.3828 32.3124 25.188 32.8792 26.245C33.4504 27.3021 33.7361 28.584 33.7361 30.0909ZM30.7741 30.0909C30.7741 29.1148 30.6279 28.2917 30.3355 27.6214C30.0476 26.9512 29.6405 26.4429 29.1143 26.0966C28.588 25.7502 27.9717 25.5771 27.2655 25.5771C26.5593 25.5771 25.9431 25.7502 25.4168 26.0966C24.8905 26.4429 24.4812 26.9512 24.1888 27.6214C23.901 28.2917 23.757 29.1148 23.757 30.0909C23.757 31.067 23.901 31.8902 24.1888 32.5604C24.4812 33.2306 24.8905 33.7389 25.4168 34.0852C25.9431 34.4316 26.5593 34.6048 27.2655 34.6048C27.9717 34.6048 28.588 34.4316 29.1143 34.0852C29.6405 33.7389 30.0476 33.2306 30.3355 32.5604C30.6279 31.8902 30.7741 31.067 30.7741 30.0909ZM47.9973 28.0195H45.0421C44.9881 27.6372 44.8779 27.2976 44.7115 27.0007C44.545 26.6993 44.3314 26.4429 44.0705 26.2315C43.8096 26.0201 43.5082 25.8582 43.1664 25.7457C42.829 25.6333 42.4624 25.5771 42.0666 25.5771C41.3514 25.5771 40.7284 25.7547 40.1976 26.1101C39.6668 26.4609 39.2553 26.9737 38.9629 27.6484C38.6705 28.3187 38.5243 29.1328 38.5243 30.0909C38.5243 31.076 38.6705 31.9036 38.9629 32.5739C39.2598 33.2441 39.6736 33.7501 40.2044 34.092C40.7351 34.4338 41.3491 34.6048 42.0463 34.6048C42.4377 34.6048 42.7998 34.553 43.1326 34.4496C43.47 34.3461 43.7691 34.1954 44.03 33.9975C44.2909 33.7951 44.5068 33.55 44.6777 33.2621C44.8532 32.9742 44.9746 32.6458 45.0421 32.277L47.9973 32.2905C47.9209 32.9247 47.7297 33.5365 47.4238 34.1257C47.1224 34.7105 46.7154 35.2345 46.2026 35.6978C45.6943 36.1566 45.0871 36.521 44.3809 36.7908C43.6791 37.0562 42.8852 37.1889 41.9991 37.1889C40.7666 37.1889 39.6646 36.91 38.693 36.3523C37.7259 35.7945 36.9612 34.9871 36.399 33.93C35.8412 32.873 35.5623 31.5933 35.5623 30.0909C35.5623 28.584 35.8457 27.3021 36.4125 26.245C36.9792 25.188 37.7484 24.3828 38.72 23.8295C39.6916 23.2718 40.7846 22.9929 41.9991 22.9929C42.7998 22.9929 43.542 23.1053 44.2257 23.3303C44.9139 23.5552 45.5234 23.8835 46.0541 24.3153C46.5849 24.7427 47.0167 25.2667 47.3496 25.8874C47.687 26.5082 47.9029 27.2189 47.9973 28.0195Z"
          fill="white"/>
    <path d="M14.3 11.7V7.2C14.3 4.9 16.2 3 18.5 3H78.1C79.3 3 80.5 3.5 81.2 4.4L91.7 16.4C92.4 17.2 92.7 18.1 92.7 19.2V95.8C92.7 98.1 90.8 100 88.5 100H18.5C16.2 100 14.3 98.1 14.3 95.8V47.8"
          stroke="#0E0C36" stroke-width="4.5354" stroke-miterlimit="10" stroke-linecap="round" stroke-linejoin="round"/>
</svg>
