<svg width="95" height="103" viewBox="0 0 95 103" fill="none" xmlns="http://www.w3.org/2000/svg">
    <path d="M49.8 65H73.2" stroke="#0E0C36" stroke-width="4.5354" stroke-miterlimit="10" stroke-linecap="round"
          stroke-linejoin="round"/>
    <path d="M29.2 73.4H60.8" stroke="#3070F0" stroke-width="4.535" stroke-miterlimit="10" stroke-linecap="round"
          stroke-linejoin="round"/>
    <path d="M49.8 81.9H73.2" stroke="#0E0C36" stroke-width="4.5354" stroke-miterlimit="10" stroke-linecap="round"
          stroke-linejoin="round"/>
    <path d="M53.1 17.7H1.70001V42.4H53.1V17.7Z" fill="#3070F0" stroke="#3070F0" stroke-width="3.4016"
          stroke-miterlimit="10" stroke-linecap="round" stroke-linejoin="round"/>
    <path d="M9.2081 37H4.30967V23.1818H9.24859C10.6385 23.1818 11.835 23.4585 12.8381 24.0117C13.8412 24.5605 14.6126 25.3499 15.1524 26.38C15.6966 27.41 15.9688 28.6425 15.9688 30.0774C15.9688 31.5168 15.6966 32.7538 15.1524 33.7884C14.6126 34.8229 13.8367 35.6168 12.8246 36.1701C11.817 36.7234 10.6115 37 9.2081 37ZM7.23119 34.4968H9.08665C9.95029 34.4968 10.6767 34.3439 11.266 34.038C11.8597 33.7276 12.305 33.2486 12.6019 32.6009C12.9033 31.9486 13.054 31.1075 13.054 30.0774C13.054 29.0563 12.9033 28.2219 12.6019 27.5742C12.305 26.9265 11.862 26.4497 11.2727 26.1438C10.6835 25.8379 9.95704 25.685 9.0934 25.685H7.23119V34.4968ZM30.7361 30.0909C30.7361 31.5978 30.4504 32.8797 29.8792 33.9368C29.3124 34.9938 28.5387 35.8013 27.5581 36.359C26.5821 36.9123 25.4845 37.1889 24.2655 37.1889C23.0376 37.1889 21.9355 36.91 20.9594 36.3523C19.9833 35.7945 19.2119 34.9871 18.6452 33.93C18.0784 32.873 17.795 31.5933 17.795 30.0909C17.795 28.584 18.0784 27.3021 18.6452 26.245C19.2119 25.188 19.9833 24.3828 20.9594 23.8295C21.9355 23.2718 23.0376 22.9929 24.2655 22.9929C25.4845 22.9929 26.5821 23.2718 27.5581 23.8295C28.5387 24.3828 29.3124 25.188 29.8792 26.245C30.4504 27.3021 30.7361 28.584 30.7361 30.0909ZM27.7741 30.0909C27.7741 29.1148 27.6279 28.2917 27.3355 27.6214C27.0476 26.9512 26.6405 26.4429 26.1143 26.0966C25.588 25.7502 24.9717 25.5771 24.2655 25.5771C23.5593 25.5771 22.9431 25.7502 22.4168 26.0966C21.8905 26.4429 21.4812 26.9512 21.1888 27.6214C20.901 28.2917 20.757 29.1148 20.757 30.0909C20.757 31.067 20.901 31.8902 21.1888 32.5604C21.4812 33.2306 21.8905 33.7389 22.4168 34.0852C22.9431 34.4316 23.5593 34.6048 24.2655 34.6048C24.9717 34.6048 25.588 34.4316 26.1143 34.0852C26.6405 33.7389 27.0476 33.2306 27.3355 32.5604C27.6279 31.8902 27.7741 31.067 27.7741 30.0909ZM44.9973 28.0195H42.0421C41.9881 27.6372 41.8779 27.2976 41.7115 27.0007C41.545 26.6993 41.3314 26.4429 41.0705 26.2315C40.8096 26.0201 40.5082 25.8582 40.1664 25.7457C39.829 25.6333 39.4624 25.5771 39.0666 25.5771C38.3514 25.5771 37.7284 25.7547 37.1976 26.1101C36.6668 26.4609 36.2553 26.9737 35.9629 27.6484C35.6705 28.3187 35.5243 29.1328 35.5243 30.0909C35.5243 31.076 35.6705 31.9036 35.9629 32.5739C36.2598 33.2441 36.6736 33.7501 37.2044 34.092C37.7351 34.4338 38.3491 34.6048 39.0463 34.6048C39.4377 34.6048 39.7998 34.553 40.1326 34.4496C40.47 34.3461 40.7691 34.1954 41.03 33.9975C41.2909 33.7951 41.5068 33.55 41.6777 33.2621C41.8532 32.9742 41.9746 32.6458 42.0421 32.277L44.9973 32.2905C44.9209 32.9247 44.7297 33.5365 44.4238 34.1257C44.1224 34.7105 43.7154 35.2345 43.2026 35.6978C42.6943 36.1566 42.0871 36.521 41.3809 36.7908C40.6791 37.0562 39.8852 37.1889 38.9991 37.1889C37.7666 37.1889 36.6646 36.91 35.693 36.3523C34.7259 35.7945 33.9612 34.9871 33.399 33.93C32.8412 32.873 32.5623 31.5933 32.5623 30.0909C32.5623 28.584 32.8457 27.3021 33.4125 26.245C33.9792 25.188 34.7484 24.3828 35.72 23.8295C36.6916 23.2718 37.7846 22.9929 38.9991 22.9929C39.7998 22.9929 40.542 23.1053 41.2257 23.3303C41.9139 23.5552 42.5234 23.8835 43.0541 24.3153C43.5849 24.7427 44.0167 25.2667 44.3496 25.8874C44.687 26.5082 44.9029 27.2189 44.9973 28.0195Z"
          fill="white"/>
    <path d="M51.5777 37H50.3877C50.2977 37 50.2244 36.9767 50.1677 36.93C50.1144 36.8833 50.0694 36.83 50.0327 36.77L48.9477 34.985C48.931 35.0417 48.911 35.095 48.8877 35.145C48.8677 35.195 48.8444 35.2417 48.8177 35.285L47.8577 36.77C47.821 36.8267 47.776 36.88 47.7227 36.93C47.6694 36.9767 47.6027 37 47.5227 37H46.4177L48.1777 34.355L46.4877 31.87H47.6777C47.7677 31.87 47.8344 31.8833 47.8777 31.91C47.921 31.9333 47.9594 31.9733 47.9927 32.03L49.0677 33.74C49.1044 33.6267 49.156 33.515 49.2227 33.405L50.0877 32.055C50.161 31.9317 50.256 31.87 50.3727 31.87H51.5077L49.8227 34.3L51.5777 37Z"
          fill="white"/>
    <path d="M14.3 11.7V7.2C14.3 4.9 16.2 3 18.5 3H78.1C79.3 3 80.5 3.5 81.2 4.4L91.7 16.4C92.4 17.2 92.7 18.1 92.7 19.2V95.8C92.7 98.1 90.8 100 88.5 100H18.5C16.2 100 14.3 98.1 14.3 95.8V47.8"
          stroke="#0E0C36" stroke-width="4.5354" stroke-miterlimit="10" stroke-linecap="round" stroke-linejoin="round"/>
</svg>
