<svg width="95" height="103" viewBox="0 0 95 103" fill="none" xmlns="http://www.w3.org/2000/svg">
    <path d="M14.2 11.7V7.2C14.2 4.9 16.1 3 18.4 3H78C79.2 3 80.4 3.5 81.1 4.4L91.6 16.4C92.3 17.2 92.6 18.1 92.6 19.2V95.8C92.6 98.1 90.7 100 88.4 100H18.2C15.9 100 14 98.1 14 95.8V47.8"
          stroke="#0E0C36" stroke-width="4.5354" stroke-miterlimit="10" stroke-linecap="round" stroke-linejoin="round"/>
    <path d="M53.1 17.7H1.70001V42.4H53.1V17.7Z" fill="#25CED1" stroke="#25CED1" stroke-width="3.4016"
          stroke-miterlimit="10" stroke-linecap="round" stroke-linejoin="round"/>
    <path d="M68.6 65.9C73.184 65.9 76.9 62.184 76.9 57.6C76.9 53.016 73.184 49.3 68.6 49.3C64.0161 49.3 60.3 53.016 60.3 57.6C60.3 62.184 64.0161 65.9 68.6 65.9Z"
          fill="#25CED1"/>
    <path d="M42.6 58.1L24.3 89.5H83.9L68.2 72.7L59.3 80.8L42.6 58.1Z" fill="#0E0C36"/>
    <path d="M21.4419 27.6484C21.3474 27.3201 21.2147 27.0299 21.0438 26.7781C20.8728 26.5217 20.6637 26.3058 20.4163 26.1303C20.1734 25.9504 19.8945 25.8132 19.5796 25.7188C19.2693 25.6243 18.9252 25.5771 18.5473 25.5771C17.8411 25.5771 17.2204 25.7525 16.6851 26.1033C16.1543 26.4542 15.7405 26.9647 15.4436 27.6349C15.1468 28.3007 14.9983 29.1148 14.9983 30.0774C14.9983 31.04 15.1445 31.8587 15.4369 32.5334C15.7293 33.2081 16.1431 33.7231 16.6784 34.0785C17.2136 34.4293 17.8456 34.6048 18.5743 34.6048C19.2355 34.6048 19.8001 34.4878 20.2679 34.2539C20.7402 34.0155 21.1 33.6804 21.3474 33.2486C21.5993 32.8168 21.7252 32.3062 21.7252 31.717L22.319 31.8047H18.7565V29.6051H24.5388V31.3459C24.5388 32.5604 24.2824 33.6039 23.7696 34.4766C23.2568 35.3447 22.5506 36.0149 21.651 36.4872C20.7514 36.955 19.7213 37.1889 18.5608 37.1889C17.2654 37.1889 16.1273 36.9033 15.1468 36.332C14.1662 35.7563 13.4015 34.9399 12.8527 33.8828C12.3085 32.8213 12.0363 31.5618 12.0363 30.1044C12.0363 28.9844 12.1983 27.9858 12.5221 27.1087C12.8505 26.227 13.3093 25.4804 13.8985 24.8686C14.4878 24.2569 15.1737 23.7913 15.9564 23.4719C16.7391 23.1526 17.587 22.9929 18.5001 22.9929C19.2828 22.9929 20.0115 23.1076 20.6862 23.337C21.3609 23.5619 21.9591 23.8813 22.4809 24.2951C23.0072 24.7089 23.4368 25.2015 23.7696 25.7727C24.1025 26.3395 24.3161 26.9647 24.4106 27.6484H21.4419ZM30.1298 23.1818V37H27.2083V23.1818H30.1298ZM33.0085 37V23.1818H42.1577V25.5906H35.93V28.8832H41.5504V31.2919H35.93V37H33.0085Z"
          fill="white"/>
</svg>
