<svg width="95" height="103" viewBox="0 0 95 103" fill="none" xmlns="http://www.w3.org/2000/svg">
    <path d="M14.2 11.7V7.2C14.2 4.9 16.1 3 18.4 3H78C79.2 3 80.4 3.5 81.1 4.4L91.6 16.4C92.3 17.2 92.6 18.1 92.6 19.2V95.8C92.6 98.1 90.7 100 88.4 100H18.2C15.9 100 14 98.1 14 95.8V47.8"
          stroke="#0E0C36" stroke-width="4.5354" stroke-miterlimit="10" stroke-linecap="round" stroke-linejoin="round"/>
    <path d="M53.1 17.7H1.70001V42.4H53.1V17.7Z" fill="#FBAA19" stroke="#FBAA19" stroke-width="3.4016"
          stroke-miterlimit="10" stroke-linecap="round" stroke-linejoin="round"/>
    <path d="M9.40002 32.9V32.2C9.40002 32 9.50003 31.9 9.70003 31.9H11.8C12 31.9 12.1 32 12.1 32.2V32.9C12.1 34.2 13 35 14.4 35C15.8 35 16.7 34.1 16.7 32.9V23.6C16.7 23.4 16.8 23.3 17 23.3H19.1C19.3 23.3 19.4 23.4 19.4 23.6V32.9C19.4 35.6 17.3 37.5 14.3 37.5C11.4 37.5 9.40002 35.7 9.40002 32.9Z"
          fill="white"/>
    <path d="M32.2 27.6C32.2 30.1 30.4 31.8 27.7 31.8H24.9C24.8 31.8 24.8 31.8 24.8 31.9V36.9C24.8 37.1 24.7 37.2 24.5 37.2H22.4C22.2 37.2 22.1 37.1 22.1 36.9V23.6C22.1 23.4 22.2 23.3 22.4 23.3H27.9C30.4 23.3 32.2 25 32.2 27.6ZM29.4 27.7C29.4 26.5 28.6 25.7 27.4 25.7H24.9C24.8 25.7 24.8 25.7 24.8 25.8V29.5C24.8 29.6 24.8 29.6 24.9 29.6H27.4C28.6 29.6 29.4 28.8 29.4 27.7Z"
          fill="white"/>
    <path d="M33.7 32.6V28.1C33.7 25.1 35.8 23.2 38.9 23.2C42 23.2 44.1 25.2 44.1 27.7C44.1 27.9 44 28 43.8 28H41.7C41.5 28 41.4 27.9 41.4 27.8V27.7C41.4 26.5 40.5 25.5 39.1 25.5C37.7 25.5 36.7 26.5 36.7 27.9V32.5C36.7 33.9 37.8 34.9 39.2 34.9C40.6 34.9 41.5 34.1 41.5 32.8V31.9C41.5 31.8 41.5 31.8 41.4 31.8H39.3C39.1 31.8 39 31.7 39 31.5V29.9C39 29.7 39.1 29.6 39.3 29.6H44C44.2 29.6 44.3 29.7 44.3 29.9V32.5C44.3 35.6 42.2 37.4 39.1 37.4C35.7 37.5 33.7 35.5 33.7 32.6Z"
          fill="white"/>
    <path d="M68.6 65.9C73.184 65.9 76.9 62.184 76.9 57.6C76.9 53.016 73.184 49.3 68.6 49.3C64.0161 49.3 60.3 53.016 60.3 57.6C60.3 62.184 64.0161 65.9 68.6 65.9Z"
          fill="#FBAA19"/>
    <path d="M42.6 58.1L24.3 89.5H83.9L68.2 72.7L59.3 80.8L42.6 58.1Z" fill="#0E0C36"/>
</svg>
