<svg width="95" height="103" viewBox="0 0 95 103" fill="none" xmlns="http://www.w3.org/2000/svg">
    <path d="M49.8 65H73.2" stroke="#0E0C36" stroke-width="4.5354" stroke-miterlimit="10" stroke-linecap="round"
          stroke-linejoin="round"/>
    <path d="M29.2 73.4H60.8" stroke="#EF3E36" stroke-width="4.535" stroke-miterlimit="10" stroke-linecap="round"
          stroke-linejoin="round"/>
    <path d="M49.8 81.9H73.2" stroke="#0E0C36" stroke-width="4.5354" stroke-miterlimit="10" stroke-linecap="round"
          stroke-linejoin="round"/>
    <path d="M53.1 17.7H1.70001V42.4H53.1V17.7Z" fill="#EF3E36" stroke="#EF3E36" stroke-width="3.4016"
          stroke-miterlimit="10" stroke-linecap="round" stroke-linejoin="round"/>
    <path d="M20.7 27.6C20.7 30.1 18.9 31.8 16.2 31.8H13.4C13.3 31.8 13.3 31.8 13.3 31.9V36.9C13.3 37.1 13.2 37.2 13 37.2H10.9C10.7 37.2 10.6 37.1 10.6 36.9V23.6C10.6 23.4 10.7 23.3 10.9 23.3H16.2C18.9 23.3 20.7 25 20.7 27.6ZM17.9 27.7C17.9 26.5 17.1 25.7 15.9 25.7H13.4C13.3 25.7 13.3 25.7 13.3 25.8V29.5C13.3 29.6 13.3 29.6 13.4 29.6H15.9C17 29.6 17.9 28.8 17.9 27.7Z"
          fill="white"/>
    <path d="M22.4 37V23.7C22.4 23.5 22.5 23.4 22.7 23.4H27.6C30.6 23.4 32.6 25.1 32.6 27.6V33.1C32.6 35.7 30.6 37.3 27.6 37.3H22.7C22.5 37.3 22.4 37.2 22.4 37ZM25.3 34.9H27.7C28.9 34.9 29.8 34 29.8 32.6V28C29.8 26.6 29 25.7 27.7 25.7H25.3C25.2 25.7 25.2 25.7 25.2 25.8V34.7C25.2 34.9 25.3 34.9 25.3 34.9Z"
          fill="white"/>
    <path d="M44.1 25.7H37.7C37.6 25.7 37.6 25.7 37.6 25.8V28.9C37.6 29 37.6 29 37.7 29H41.9C42.1 29 42.2 29.1 42.2 29.3V31C42.2 31.2 42.1 31.3 41.9 31.3H37.7C37.6 31.3 37.6 31.3 37.6 31.4V36.8C37.6 37 37.5 37.1 37.3 37.1H35.2C35 37.1 34.9 37 34.9 36.8V23.7C34.9 23.5 35 23.4 35.2 23.4H44.2C44.4 23.4 44.5 23.5 44.5 23.7V25.4C44.5 25.6 44.3 25.7 44.1 25.7Z"
          fill="white"/>
    <path d="M14.3 11.7V7.2C14.3 4.9 16.2 3 18.5 3H78.1C79.3 3 80.5 3.5 81.2 4.4L91.7 16.4C92.4 17.2 92.7 18.1 92.7 19.2V95.8C92.7 98.1 90.8 100 88.5 100H18.5C16.2 100 14.3 98.1 14.3 95.8V47.8"
          stroke="#0E0C36" stroke-width="4.5354" stroke-miterlimit="10" stroke-linecap="round" stroke-linejoin="round"/>
</svg>
