<svg width="66" height="54" viewBox="0 0 66 54" fill="none" xmlns="http://www.w3.org/2000/svg">
    <path d="M58.7742 47.1345L12.4774 52.998C8.83975 53.4587 5.48658 50.8594 5.02588 47.2218L0.837646 14.1527C0.376941 10.515 2.97622 7.16188 6.61383 6.70117L52.9107 0.83765C56.5483 0.376945 59.9014 2.97623 60.3621 6.61384L64.5504 39.683C65.0111 43.3206 62.4118 46.6738 58.7742 47.1345Z"
          fill="#E65100"/>
    <path d="M59.3333 50.6667H12.6667C9 50.6667 6 47.6667 6 44V10.6667C6 7 9 4 12.6667 4H59.3333C63 4 66 7 66 10.6667V44C66 47.6667 63 50.6667 59.3333 50.6667Z"
          fill="#F57C00"/>
    <path d="M51 22.3333C53.7614 22.3333 56 20.0947 56 17.3333C56 14.5719 53.7614 12.3333 51 12.3333C48.2386 12.3333 46 14.5719 46 17.3333C46 20.0947 48.2386 22.3333 51 22.3333Z"
          fill="#FFF9C4"/>
    <path d="M29.3333 20.5L14.3333 42.3333H44.3333L29.3333 20.5Z" fill="#942A09"/>
    <path d="M47.6667 29.8333L37.6667 42.3333H57.6667L47.6667 29.8333Z" fill="#BF360C"/>
</svg>
