<svg width="95" height="103" viewBox="0 0 95 103" fill="none" xmlns="http://www.w3.org/2000/svg">
    <path d="M14.2 11.7V7.2C14.2 4.9 16.1 3 18.4 3H78C79.2 3 80.4 3.5 81.1 4.4L91.6 16.4C92.3 17.2 92.6 18.1 92.6 19.2V95.8C92.6 98.1 90.7 100 88.4 100H18.2C15.9 100 14 98.1 14 95.8V47.8"
          stroke="#0E0C36" stroke-width="4.5354" stroke-miterlimit="10" stroke-linecap="round" stroke-linejoin="round"/>
    <path d="M53.1 17.7H1.70001V42.4H53.1V17.7Z" fill="#EA526F" stroke="#EA526F" stroke-width="3.4016"
          stroke-miterlimit="10" stroke-linecap="round" stroke-linejoin="round"/>
    <path d="M68.6 65.9C73.184 65.9 76.9 62.184 76.9 57.6C76.9 53.016 73.184 49.3 68.6 49.3C64.0161 49.3 60.3 53.016 60.3 57.6C60.3 62.184 64.0161 65.9 68.6 65.9Z"
          fill="#EA526F"/>
    <path d="M42.6 58.1L24.3 89.5H83.9L68.2 72.7L59.3 80.8L42.6 58.1Z" fill="#0E0C36"/>
    <path d="M8.55222 37V23.1818H14.0039C15.052 23.1818 15.9449 23.382 16.6826 23.7823C17.4202 24.1781 17.9825 24.7292 18.3693 25.4354C18.7607 26.1371 18.9563 26.9467 18.9563 27.8643C18.9563 28.782 18.7584 29.5916 18.3626 30.2933C17.9668 30.995 17.3933 31.5415 16.6421 31.9329C15.8954 32.3242 14.9913 32.5199 13.9297 32.5199H10.4549V30.1786H13.4574C14.0197 30.1786 14.483 30.0819 14.8473 29.8885C15.2162 29.6906 15.4906 29.4184 15.6705 29.0721C15.8549 28.7212 15.9471 28.3187 15.9471 27.8643C15.9471 27.4055 15.8549 27.0052 15.6705 26.6634C15.4906 26.317 15.2162 26.0494 14.8473 25.8604C14.4785 25.667 14.0107 25.5703 13.4439 25.5703H11.4737V37H8.55222ZM32.5069 23.1818V37H29.9834L23.9717 28.3029H23.8705V37H20.949V23.1818H23.5129L29.4774 31.8722H29.5988V23.1818H32.5069ZM44.5583 27.6484C44.4638 27.3201 44.3312 27.0299 44.1602 26.7781C43.9893 26.5217 43.7801 26.3058 43.5327 26.1303C43.2898 25.9504 43.011 25.8132 42.6961 25.7188C42.3857 25.6243 42.0416 25.5771 41.6638 25.5771C40.9576 25.5771 40.3368 25.7525 39.8016 26.1033C39.2708 26.4542 38.857 26.9647 38.5601 27.6349C38.2632 28.3007 38.1148 29.1148 38.1148 30.0774C38.1148 31.04 38.261 31.8587 38.5533 32.5334C38.8457 33.2081 39.2595 33.7231 39.7948 34.0785C40.3301 34.4293 40.9621 34.6048 41.6908 34.6048C42.352 34.6048 42.9165 34.4878 43.3843 34.2539C43.8566 34.0155 44.2164 33.6804 44.4638 33.2486C44.7157 32.8168 44.8417 32.3062 44.8417 31.717L45.4354 31.8047H41.8729V29.6051H47.6553V31.3459C47.6553 32.5604 47.3989 33.6039 46.8861 34.4766C46.3733 35.3447 45.6671 36.0149 44.7675 36.4872C43.8678 36.955 42.8378 37.1889 41.6773 37.1889C40.3818 37.1889 39.2438 36.9033 38.2632 36.332C37.2826 35.7563 36.5179 34.9399 35.9692 33.8828C35.4249 32.8213 35.1528 31.5618 35.1528 30.1044C35.1528 28.9844 35.3147 27.9858 35.6386 27.1087C35.9669 26.227 36.4257 25.4804 37.015 24.8686C37.6042 24.2569 38.2902 23.7913 39.0729 23.4719C39.8555 23.1526 40.7034 22.9929 41.6165 22.9929C42.3992 22.9929 43.1279 23.1076 43.8026 23.337C44.4773 23.5619 45.0756 23.8813 45.5974 24.2951C46.1236 24.7089 46.5532 25.2015 46.8861 25.7727C47.2189 26.3395 47.4326 26.9647 47.5271 27.6484H44.5583Z"
          fill="white"/>
</svg>
