<svg width="95" height="103" viewBox="0 0 95 103" fill="none" xmlns="http://www.w3.org/2000/svg">
    <path d="M49.8 65H73.2" stroke="#0E0C36" stroke-width="4.5354" stroke-miterlimit="10" stroke-linecap="round"
          stroke-linejoin="round"/>
    <path d="M29.2 73.4H60.8" stroke="#FF6F1F" stroke-width="4.535" stroke-miterlimit="10" stroke-linecap="round"
          stroke-linejoin="round"/>
    <path d="M49.8 81.9H73.2" stroke="#0E0C36" stroke-width="4.5354" stroke-miterlimit="10" stroke-linecap="round"
          stroke-linejoin="round"/>
    <path d="M53.1 17.7H1.70001V42.4H53.1V17.7Z" fill="#FF6F1F" stroke="#FF6F1F" stroke-width="3.4016"
          stroke-miterlimit="10" stroke-linecap="round" stroke-linejoin="round"/>
    <path d="M14.3 11.7V7.2C14.3 4.9 16.2 3 18.5 3H78.1C79.3 3 80.5 3.5 81.2 4.4L91.7 16.4C92.4 17.2 92.7 18.1 92.7 19.2V95.8C92.7 98.1 90.8 100 88.5 100H18.5C16.2 100 14.3 98.1 14.3 95.8V47.8"
          stroke="#0E0C36" stroke-width="4.5354" stroke-miterlimit="10" stroke-linecap="round" stroke-linejoin="round"/>
    <path d="M10.1485 37V23.1818H15.6002C16.6483 23.1818 17.5412 23.382 18.2789 23.7823C19.0165 24.1781 19.5788 24.7292 19.9656 25.4354C20.357 26.1371 20.5527 26.9467 20.5527 27.8643C20.5527 28.782 20.3547 29.5916 19.9589 30.2933C19.5631 30.995 18.9896 31.5415 18.2384 31.9329C17.4917 32.3242 16.5876 32.5199 15.526 32.5199H12.0512V30.1786H15.0537C15.616 30.1786 16.0793 30.0819 16.4436 29.8885C16.8125 29.6906 17.0869 29.4184 17.2668 29.0721C17.4512 28.7212 17.5434 28.3187 17.5434 27.8643C17.5434 27.4055 17.4512 27.0052 17.2668 26.6634C17.0869 26.317 16.8125 26.0494 16.4436 25.8604C16.0748 25.667 15.607 25.5703 15.0402 25.5703H13.0701V37H10.1485ZM22.3553 37V23.1818H27.807C28.8551 23.1818 29.7479 23.382 30.4856 23.7823C31.2233 24.1781 31.7856 24.7292 32.1724 25.4354C32.5637 26.1371 32.7594 26.9467 32.7594 27.8643C32.7594 28.782 32.5615 29.5916 32.1657 30.2933C31.7698 30.995 31.1963 31.5415 30.4451 31.9329C29.6984 32.3242 28.7943 32.5199 27.7328 32.5199H24.258V30.1786H27.2605C27.8227 30.1786 28.286 30.0819 28.6504 29.8885C29.0192 29.6906 29.2936 29.4184 29.4735 29.0721C29.658 28.7212 29.7502 28.3187 29.7502 27.8643C29.7502 27.4055 29.658 27.0052 29.4735 26.6634C29.2936 26.317 29.0192 26.0494 28.6504 25.8604C28.2815 25.667 27.8137 25.5703 27.247 25.5703H25.2768V37H22.3553ZM34.0358 25.5906V23.1818H45.3845V25.5906H41.154V37H38.2662V25.5906H34.0358Z"
          fill="white"/>
</svg>
