<svg width="95" height="103" viewBox="0 0 95 103" fill="none" xmlns="http://www.w3.org/2000/svg">
    <path d="M49.8 65H73.2" stroke="#0E0C36" stroke-width="4.5354" stroke-miterlimit="10" stroke-linecap="round"
          stroke-linejoin="round"/>
    <path d="M29.2 73.4H60.8" stroke="#F56515" stroke-width="4.535" stroke-miterlimit="10" stroke-linecap="round"
          stroke-linejoin="round"/>
    <path d="M49.8 81.9H73.2" stroke="#0E0C36" stroke-width="4.5354" stroke-miterlimit="10" stroke-linecap="round"
          stroke-linejoin="round"/>
    <path d="M53.1 17.7H1.70001V42.4H53.1V17.7Z" fill="#F56515" stroke="#F56515" stroke-width="3.4016"
          stroke-miterlimit="10" stroke-linecap="round" stroke-linejoin="round"/>
    <path d="M8.14853 37V23.1818H13.6002C14.6483 23.1818 15.5412 23.382 16.2789 23.7823C17.0165 24.1781 17.5788 24.7292 17.9656 25.4354C18.357 26.1371 18.5527 26.9467 18.5527 27.8643C18.5527 28.782 18.3547 29.5916 17.9589 30.2933C17.5631 30.995 16.9896 31.5415 16.2384 31.9329C15.4917 32.3242 14.5876 32.5199 13.526 32.5199H10.0512V30.1786H13.0537C13.616 30.1786 14.0793 30.0819 14.4436 29.8885C14.8125 29.6906 15.0869 29.4184 15.2668 29.0721C15.4512 28.7212 15.5434 28.3187 15.5434 27.8643C15.5434 27.4055 15.4512 27.0052 15.2668 26.6634C15.0869 26.317 14.8125 26.0494 14.4436 25.8604C14.0748 25.667 13.607 25.5703 13.0402 25.5703H11.0701V37H8.14853ZM20.3553 37V23.1818H25.807C26.8551 23.1818 27.7479 23.382 28.4856 23.7823C29.2233 24.1781 29.7856 24.7292 30.1724 25.4354C30.5637 26.1371 30.7594 26.9467 30.7594 27.8643C30.7594 28.782 30.5615 29.5916 30.1657 30.2933C29.7698 30.995 29.1963 31.5415 28.4451 31.9329C27.6984 32.3242 26.7943 32.5199 25.7328 32.5199H22.258V30.1786H25.2605C25.8227 30.1786 26.286 30.0819 26.6504 29.8885C27.0192 29.6906 27.2936 29.4184 27.4735 29.0721C27.658 28.7212 27.7502 28.3187 27.7502 27.8643C27.7502 27.4055 27.658 27.0052 27.4735 26.6634C27.2936 26.317 27.0192 26.0494 26.6504 25.8604C26.2815 25.667 25.8137 25.5703 25.247 25.5703H23.2768V37H20.3553ZM32.0358 25.5906V23.1818H43.3845V25.5906H39.154V37H36.2662V25.5906H32.0358Z"
          fill="white"/>
    <path d="M49.5777 37H48.3877C48.2977 37 48.2244 36.9767 48.1677 36.93C48.1144 36.8833 48.0694 36.83 48.0327 36.77L46.9477 34.985C46.931 35.0417 46.911 35.095 46.8877 35.145C46.8677 35.195 46.8444 35.2417 46.8177 35.285L45.8577 36.77C45.821 36.8267 45.776 36.88 45.7227 36.93C45.6694 36.9767 45.6027 37 45.5227 37H44.4177L46.1777 34.355L44.4877 31.87H45.6777C45.7677 31.87 45.8344 31.8833 45.8777 31.91C45.921 31.9333 45.9594 31.9733 45.9927 32.03L47.0677 33.74C47.1044 33.6267 47.156 33.515 47.2227 33.405L48.0877 32.055C48.161 31.9317 48.256 31.87 48.3727 31.87H49.5077L47.8227 34.3L49.5777 37Z"
          fill="white"/>
    <path d="M14.3 11.7V7.2C14.3 4.9 16.2 3 18.5 3H78.1C79.3 3 80.5 3.5 81.2 4.4L91.7 16.4C92.4 17.2 92.7 18.1 92.7 19.2V95.8C92.7 98.1 90.8 100 88.5 100H18.5C16.2 100 14.3 98.1 14.3 95.8V47.8"
          stroke="#0E0C36" stroke-width="4.5354" stroke-miterlimit="10" stroke-linecap="round" stroke-linejoin="round"/>
</svg>
