<svg width="95" height="103" viewBox="0 0 95 103" fill="none" xmlns="http://www.w3.org/2000/svg">
    <path d="M53.1 17.7H1.70001V42.4H53.1V17.7Z" fill="#D67AB1" stroke="#D67AB1" stroke-width="3.4016"
          stroke-miterlimit="10" stroke-linecap="round" stroke-linejoin="round"/>
    <path d="M16.8653 23.1818H19.7868V32.1555C19.7868 33.1631 19.5462 34.0447 19.0649 34.8004C18.5881 35.5561 17.9201 36.1454 17.061 36.5682C16.2019 36.9865 15.201 37.1957 14.0585 37.1957C12.9115 37.1957 11.9084 36.9865 11.0493 36.5682C10.1901 36.1454 9.52217 35.5561 9.04537 34.8004C8.56857 34.0447 8.33017 33.1631 8.33017 32.1555V23.1818H11.2517V31.9059C11.2517 32.4322 11.3664 32.9 11.5958 33.3093C11.8297 33.7186 12.1581 34.0402 12.5809 34.2741C13.0037 34.508 13.4962 34.625 14.0585 34.625C14.6253 34.625 15.1178 34.508 15.5361 34.2741C15.959 34.0402 16.2851 33.7186 16.5145 33.3093C16.7484 32.9 16.8653 32.4322 16.8653 31.9059V23.1818ZM22.0955 37V23.1818H25.017V29.2745H25.1992L30.1719 23.1818H33.6737L28.5458 29.369L33.7344 37H30.2393L26.4542 31.3189L25.017 33.0732V37H22.0955ZM46.658 23.1818V37H44.1346L38.1229 28.3029H38.0217V37H35.1001V23.1818H37.6641L43.6285 31.8722H43.75V23.1818H46.658Z"
          fill="white"/>
    <path d="M14.3 11.7V7.2C14.3 4.9 16.2 3 18.5 3H78.1C79.3 3 80.5 3.5 81.2 4.4L91.7 16.4C92.4 17.2 92.7 18.1 92.7 19.2V95.8C92.7 98.1 90.8 100 88.5 100H18.5C16.2 100 14.3 98.1 14.3 95.8V47.8"
          stroke="#0E0C36" stroke-width="4.5354" stroke-miterlimit="10" stroke-linecap="round" stroke-linejoin="round"/>
    <path d="M85 91L71 91" stroke="#0E0C36" stroke-width="4.5354" stroke-miterlimit="10" stroke-linecap="round"
          stroke-linejoin="round"/>
    <path d="M85 83L77 83" stroke="#D67AB1" stroke-width="4.5354" stroke-miterlimit="10" stroke-linecap="round"
          stroke-linejoin="round"/>
    <path d="M85 75L82 75" stroke="#0E0C36" stroke-width="4.5354" stroke-miterlimit="10" stroke-linecap="round"
          stroke-linejoin="round"/>
</svg>
