<svg width="95" height="103" viewBox="0 0 95 103" fill="none" xmlns="http://www.w3.org/2000/svg">
    <path d="M49.8 65H73.2" stroke="#0E0C36" stroke-width="4.5354" stroke-miterlimit="10" stroke-linecap="round"
          stroke-linejoin="round"/>
    <path d="M29.2 73.4H60.8" stroke="#2ACA8A" stroke-width="4.535" stroke-miterlimit="10" stroke-linecap="round"
          stroke-linejoin="round"/>
    <path d="M49.8 81.9H73.2" stroke="#0E0C36" stroke-width="4.5354" stroke-miterlimit="10" stroke-linecap="round"
          stroke-linejoin="round"/>
    <path d="M53.1 17.7H1.70001V42.4H53.1V17.7Z" fill="#2ACA8A" stroke="#2ACA8A" stroke-width="3.4016"
          stroke-miterlimit="10" stroke-linecap="round" stroke-linejoin="round"/>
    <path d="M11.1291 23.1818L13.9157 27.8913H14.0236L16.8237 23.1818H20.1231L15.9061 30.0909L20.2175 37H16.8574L14.0236 32.2837H13.9157L11.0819 37H7.73527L12.0602 30.0909L7.81624 23.1818H11.1291ZM21.8768 37V23.1818H24.7983V34.5913H30.7223V37H21.8768ZM40.0581 27.1559C40.0042 26.6116 39.7725 26.1888 39.3632 25.8874C38.9539 25.5861 38.3983 25.4354 37.6966 25.4354C37.2198 25.4354 36.8173 25.5028 36.4889 25.6378C36.1605 25.7682 35.9086 25.9504 35.7332 26.1843C35.5623 26.4182 35.4768 26.6836 35.4768 26.9805C35.4678 27.2279 35.5196 27.4438 35.632 27.6282C35.749 27.8126 35.9086 27.9723 36.1111 28.1072C36.3135 28.2377 36.5474 28.3524 36.8128 28.4513C37.0781 28.5458 37.3615 28.6268 37.6629 28.6942L38.9044 28.9911C39.5071 29.1261 40.0604 29.306 40.5642 29.5309C41.068 29.7558 41.5043 30.0324 41.8731 30.3608C42.242 30.6892 42.5276 31.076 42.73 31.5213C42.9369 31.9666 43.0426 32.4772 43.0471 33.0529C43.0426 33.8986 42.8267 34.6317 42.3994 35.2525C41.9766 35.8687 41.3648 36.3478 40.5642 36.6896C39.768 37.027 38.8077 37.1957 37.6831 37.1957C36.5676 37.1957 35.596 37.0247 34.7684 36.6829C33.9452 36.341 33.302 35.835 32.8387 35.1648C32.3799 34.4901 32.1392 33.6557 32.1167 32.6616H34.9438C34.9753 33.1249 35.108 33.5117 35.3419 33.8221C35.5803 34.128 35.8974 34.3596 36.2932 34.517C36.6936 34.67 37.1456 34.7464 37.6494 34.7464C38.1442 34.7464 38.5738 34.6745 38.9381 34.5305C39.307 34.3866 39.5926 34.1864 39.795 33.93C39.9974 33.6737 40.0986 33.379 40.0986 33.0462C40.0986 32.7358 40.0064 32.4749 39.822 32.2635C39.6421 32.0521 39.3767 31.8722 39.0258 31.7237C38.6795 31.5753 38.2544 31.4403 37.7506 31.3189L36.246 30.9411C35.081 30.6577 34.1611 30.2146 33.4864 29.6119C32.8117 29.0091 32.4766 28.1972 32.4811 27.1761C32.4766 26.3395 32.6992 25.6085 33.1491 24.9833C33.6034 24.3581 34.2263 23.87 35.018 23.5192C35.8097 23.1683 36.7093 22.9929 37.7169 22.9929C38.7424 22.9929 39.6376 23.1683 40.4022 23.5192C41.1714 23.87 41.7697 24.3581 42.197 24.9833C42.6243 25.6085 42.8447 26.3327 42.8582 27.1559H40.0581Z"
          fill="white"/>
    <path d="M49.5777 37H48.3877C48.2977 37 48.2244 36.9767 48.1677 36.93C48.1144 36.8833 48.0694 36.83 48.0327 36.77L46.9477 34.985C46.931 35.0417 46.911 35.095 46.8877 35.145C46.8677 35.195 46.8444 35.2417 46.8177 35.285L45.8577 36.77C45.821 36.8267 45.776 36.88 45.7227 36.93C45.6694 36.9767 45.6027 37 45.5227 37H44.4177L46.1777 34.355L44.4877 31.87H45.6777C45.7677 31.87 45.8344 31.8833 45.8777 31.91C45.921 31.9333 45.9594 31.9733 45.9927 32.03L47.0677 33.74C47.1044 33.6267 47.156 33.515 47.2227 33.405L48.0877 32.055C48.161 31.9317 48.256 31.87 48.3727 31.87H49.5077L47.8227 34.3L49.5777 37Z"
          fill="white"/>
    <path d="M14.3 11.7V7.2C14.3 4.9 16.2 3 18.5 3H78.1C79.3 3 80.5 3.5 81.2 4.4L91.7 16.4C92.4 17.2 92.7 18.1 92.7 19.2V95.8C92.7 98.1 90.8 100 88.5 100H18.5C16.2 100 14.3 98.1 14.3 95.8V47.8"
          stroke="#0E0C36" stroke-width="4.5354" stroke-miterlimit="10" stroke-linecap="round" stroke-linejoin="round"/>
</svg>
